# xmcd
#
# Track frame offsets: 
#        182
#        8442
#        22042
#        38175
#        50970
#        64305
#        88585
#        105595
#        124697
#        140335
#        158972
#        175360
#
# Disc length: 2389 seconds
#
# Revision: 9
# Processed by: cddbd v1.5.2PL0 Copyright (c) Steve Scherf et al.
# Submitted via: ExactAudioCopy v0.95b3
#
DISCID=a009530c
DTITLE=The Blues Brothers - Briefcase Full Of Blues
DYEAR=1978
DGENRE=Rhythm and Blues
TTITLE0=Opening  I Can't Turn You Loose
TTITLE1=Hey Bartender
TTITLE2=Messin' With The Kid
TTITLE3=(I Got Every Thing I Need) Almost
TTITLE4=Rubber Biscuit
TTITLE5=Shot Gun Blues
TTITLE6=Groove Me
TTITLE7=I Don't Know
TTITLE8=Soul Man
TTITLE9="B" Movie Box Car Blues
TTITLE10=Flip, Flop And Fly
TTITLE11=Closing I Can't Turn You Loose
EXTD=
EXTT0=
EXTT1=
EXTT2=
EXTT3=
EXTT4=
EXTT5=
EXTT6=
EXTT7=
EXTT8=
EXTT9=
EXTT10=
EXTT11=
PLAYORDER=
